# Blender v2.78 (sub 0) OBJ File: ''
# www.blender.org
mtllib spikes.mtl
o Cone.026_Cone.045
v 1.836707 0.057211 -0.314699
v 2.466104 0.057211 -0.314699
v 2.151405 0.502262 0.000000
v 2.466104 0.057211 0.314699
v 1.836707 0.057211 0.314699
v 2.480980 -0.052509 -0.314699
v 1.851583 -0.052509 -0.314699
v 2.166282 -0.497560 0.000000
v 1.851583 -0.052509 0.314699
v 2.480980 -0.052509 0.314699
v 1.257871 -0.052509 -0.314699
v 0.628473 -0.052509 -0.314699
v 0.943172 -0.497560 -0.000000
v 0.628473 -0.052509 0.314699
v 1.257871 -0.052509 0.314699
v 0.021231 -0.052509 -0.314699
v -0.608167 -0.052509 -0.314699
v -0.293468 -0.497560 -0.000000
v -0.608167 -0.052509 0.314699
v 0.021231 -0.052509 0.314699
v 0.589456 0.057211 -0.314699
v 1.218853 0.057211 -0.314699
v 0.904155 0.502262 0.000000
v 1.218853 0.057211 0.314699
v 0.589456 0.057211 0.314699
v 0.642933 -0.052509 -0.314699
v 0.013536 -0.052509 -0.314699
v 0.328234 -0.497560 -0.000000
v 0.013536 -0.052509 0.314699
v 0.642933 -0.052509 0.314699
v 1.872808 -0.052509 -0.314699
v 1.243411 -0.052509 -0.314699
v 1.558109 -0.497560 -0.000000
v 1.243411 -0.052509 0.314699
v 1.872808 -0.052509 0.314699
v -0.592665 -0.052509 -0.314699
v -1.222062 -0.052509 -0.314699
v -0.907364 -0.497560 -0.000000
v -1.222062 -0.052509 0.314699
v -0.592665 -0.052509 0.314699
v -1.210464 -0.052509 -0.314699
v -1.839861 -0.052508 -0.314699
v -1.525162 -0.497560 -0.000000
v -1.839861 -0.052509 0.314699
v -1.210464 -0.052509 0.314699
v -1.261080 0.057211 -0.314699
v -0.631682 0.057211 -0.314699
v -0.946381 0.502262 0.000000
v -0.631682 0.057211 0.314699
v -1.261080 0.057211 0.314699
v -1.876017 0.057211 -0.314699
v -1.246619 0.057211 -0.314699
v -1.561318 0.502262 0.000000
v -1.246620 0.057211 0.314699
v -1.876017 0.057211 0.314699
v -2.484190 0.057211 -0.314699
v -1.854792 0.057211 -0.314699
v -2.169491 0.502262 0.000000
v -1.854792 0.057211 0.314699
v -2.484190 0.057211 0.314699
v -1.839915 -0.052508 -0.314699
v -2.469313 -0.052508 -0.314699
v -2.154614 -0.497560 0.000000
v -2.469313 -0.052509 0.314699
v -1.839915 -0.052509 0.314699
v -2.496370 -0.105320 0.333581
v -2.496370 0.094680 0.333581
v -2.496370 -0.105320 -0.333581
v -2.496370 0.094680 -0.333581
v 2.503630 -0.105320 0.333580
v 2.503630 0.094680 0.333580
v 2.503630 -0.105320 -0.333580
v 2.503630 0.094680 -0.333580
v -0.024440 0.057211 -0.314699
v 0.604958 0.057211 -0.314699
v 0.290259 0.502262 0.000000
v 0.604958 0.057211 0.314699
v -0.024440 0.057211 0.314699
v -0.646142 0.057211 -0.314699
v -0.016745 0.057211 -0.314699
v -0.331443 0.502262 0.000000
v -0.016745 0.057211 0.314699
v -0.646142 0.057211 0.314699
v 1.207255 0.057211 -0.314699
v 1.836653 0.057211 -0.314699
v 1.521954 0.502262 0.000000
v 1.836653 0.057211 0.314699
v 1.207255 0.057211 0.314699
vn -0.0000 0.5774 -0.8165
vn 0.8165 0.5773 0.0000
vn -0.0000 0.5774 0.8165
vn -0.8165 0.5774 0.0000
vn 0.0000 -1.0000 0.0000
vn -0.0000 -0.5774 -0.8165
vn -0.8165 -0.5774 -0.0000
vn -0.0000 -0.5774 0.8165
vn 0.8165 -0.5774 -0.0000
vn 0.0000 1.0000 0.0000
vn 0.8165 0.5774 0.0000
vn -1.0000 0.0000 0.0000
vn 0.0000 0.0000 -1.0000
vn 1.0000 0.0000 0.0000
vn 0.0000 0.0000 1.0000
vn -0.0000 0.5773 -0.8165
vn -0.0000 0.5773 0.8165
usemtl None
s off
f 1//1 3//1 2//1
f 2//2 3//2 4//2
f 4//3 3//3 5//3
f 5//4 3//4 1//4
f 1//5 2//5 4//5 5//5
f 6//6 8//6 7//6
f 7//7 8//7 9//7
f 9//8 8//8 10//8
f 10//9 8//9 6//9
f 6//10 7//10 9//10 10//10
f 11//6 13//6 12//6
f 12//7 13//7 14//7
f 14//8 13//8 15//8
f 15//9 13//9 11//9
f 11//10 12//10 14//10 15//10
f 16//6 18//6 17//6
f 17//7 18//7 19//7
f 19//8 18//8 20//8
f 20//9 18//9 16//9
f 16//10 17//10 19//10 20//10
f 21//1 23//1 22//1
f 22//11 23//11 24//11
f 24//3 23//3 25//3
f 25//4 23//4 21//4
f 21//5 22//5 24//5 25//5
f 26//6 28//6 27//6
f 27//7 28//7 29//7
f 29//8 28//8 30//8
f 30//9 28//9 26//9
f 26//10 27//10 29//10 30//10
f 31//6 33//6 32//6
f 32//7 33//7 34//7
f 34//8 33//8 35//8
f 35//9 33//9 31//9
f 31//10 32//10 34//10 35//10
f 36//6 38//6 37//6
f 37//7 38//7 39//7
f 39//8 38//8 40//8
f 40//9 38//9 36//9
f 36//10 37//10 39//10 40//10
f 41//6 43//6 42//6
f 42//7 43//7 44//7
f 44//8 43//8 45//8
f 45//9 43//9 41//9
f 41//10 42//10 44//10 45//10
f 46//1 48//1 47//1
f 47//11 48//11 49//11
f 49//3 48//3 50//3
f 50//4 48//4 46//4
f 46//5 47//5 49//5 50//5
f 51//1 53//1 52//1
f 52//11 53//11 54//11
f 54//3 53//3 55//3
f 55//4 53//4 51//4
f 51//5 52//5 54//5 55//5
f 56//1 58//1 57//1
f 57//11 58//11 59//11
f 59//3 58//3 60//3
f 60//4 58//4 56//4
f 56//5 57//5 59//5 60//5
f 61//6 63//6 62//6
f 62//7 63//7 64//7
f 64//8 63//8 65//8
f 65//9 63//9 61//9
f 61//10 62//10 64//10 65//10
f 66//12 67//12 69//12 68//12
f 68//13 69//13 73//13 72//13
f 72//14 73//14 71//14 70//14
f 70//15 71//15 67//15 66//15
f 68//5 72//5 70//5 66//5
f 73//10 69//10 67//10 71//10
f 74//1 76//1 75//1
f 75//11 76//11 77//11
f 77//3 76//3 78//3
f 78//4 76//4 74//4
f 74//5 75//5 77//5 78//5
f 79//1 81//1 80//1
f 80//11 81//11 82//11
f 82//3 81//3 83//3
f 83//4 81//4 79//4
f 79//5 80//5 82//5 83//5
f 84//16 86//16 85//16
f 85//11 86//11 87//11
f 87//17 86//17 88//17
f 88//4 86//4 84//4
f 84//5 85//5 87//5 88//5
